<mxfile host="app.diagrams.net" agent="Mozilla/5.0 (Windows NT 10.0; Win64; x64) AppleWebKit/537.36 (KHTML, like Gecko) Chrome/131.0.0.0 Safari/537.36" version="26.0.1">
  <diagram name="Сторінка-1" id="Evt-p2QIvp2c4mAs4NWQ">
    <mxGraphModel dx="1122" dy="454" grid="1" gridSize="10" guides="1" tooltips="1" connect="1" arrows="1" fold="1" page="1" pageScale="1" pageWidth="827" pageHeight="1169" math="0" shadow="0">
      <root>
        <mxCell id="0" />
        <mxCell id="1" parent="0" />
        <mxCell id="wV7OhAvMUVkI98Nxj6Et-1" value="Customer" style="shape=umlActor;verticalLabelPosition=bottom;verticalAlign=top;html=1;outlineConnect=0;" vertex="1" parent="1">
          <mxGeometry x="103" y="280" width="30" height="60" as="geometry" />
        </mxCell>
        <mxCell id="wV7OhAvMUVkI98Nxj6Et-4" value="Register" style="ellipse;whiteSpace=wrap;html=1;" vertex="1" parent="1">
          <mxGeometry x="303" y="210" width="100" height="40" as="geometry" />
        </mxCell>
        <mxCell id="wV7OhAvMUVkI98Nxj6Et-5" value="Login" style="ellipse;whiteSpace=wrap;html=1;" vertex="1" parent="1">
          <mxGeometry x="220" y="330" width="100" height="40" as="geometry" />
        </mxCell>
        <mxCell id="wV7OhAvMUVkI98Nxj6Et-6" value="Choose movie" style="ellipse;whiteSpace=wrap;html=1;" vertex="1" parent="1">
          <mxGeometry x="373" y="400" width="100" height="40" as="geometry" />
        </mxCell>
        <mxCell id="wV7OhAvMUVkI98Nxj6Et-7" value="Choose screening" style="ellipse;whiteSpace=wrap;html=1;" vertex="1" parent="1">
          <mxGeometry x="463" y="450" width="100" height="40" as="geometry" />
        </mxCell>
        <mxCell id="wV7OhAvMUVkI98Nxj6Et-8" value="Choose seat" style="ellipse;whiteSpace=wrap;html=1;" vertex="1" parent="1">
          <mxGeometry x="564" y="490" width="100" height="40" as="geometry" />
        </mxCell>
        <mxCell id="wV7OhAvMUVkI98Nxj6Et-39" style="edgeStyle=orthogonalEdgeStyle;rounded=0;orthogonalLoop=1;jettySize=auto;html=1;exitX=0.5;exitY=0;exitDx=0;exitDy=0;entryX=0.5;entryY=0;entryDx=0;entryDy=0;" edge="1" parent="1" source="wV7OhAvMUVkI98Nxj6Et-9" target="wV7OhAvMUVkI98Nxj6Et-8">
          <mxGeometry relative="1" as="geometry" />
        </mxCell>
        <mxCell id="wV7OhAvMUVkI98Nxj6Et-9" value="Add another ticket" style="ellipse;whiteSpace=wrap;html=1;" vertex="1" parent="1">
          <mxGeometry x="673" y="460" width="100" height="40" as="geometry" />
        </mxCell>
        <mxCell id="wV7OhAvMUVkI98Nxj6Et-10" value="Pay" style="ellipse;whiteSpace=wrap;html=1;" vertex="1" parent="1">
          <mxGeometry x="683" y="520" width="100" height="40" as="geometry" />
        </mxCell>
        <mxCell id="wV7OhAvMUVkI98Nxj6Et-19" value="" style="endArrow=none;html=1;rounded=0;entryX=0;entryY=0.5;entryDx=0;entryDy=0;" edge="1" parent="1" source="wV7OhAvMUVkI98Nxj6Et-1" target="wV7OhAvMUVkI98Nxj6Et-4">
          <mxGeometry width="50" height="50" relative="1" as="geometry">
            <mxPoint x="163" y="270" as="sourcePoint" />
            <mxPoint x="213" y="220" as="targetPoint" />
          </mxGeometry>
        </mxCell>
        <mxCell id="wV7OhAvMUVkI98Nxj6Et-20" value="" style="endArrow=none;dashed=1;html=1;rounded=0;entryX=0.5;entryY=1;entryDx=0;entryDy=0;exitX=0.5;exitY=0;exitDx=0;exitDy=0;" edge="1" parent="1" source="wV7OhAvMUVkI98Nxj6Et-5" target="wV7OhAvMUVkI98Nxj6Et-4">
          <mxGeometry width="50" height="50" relative="1" as="geometry">
            <mxPoint x="263" y="310" as="sourcePoint" />
            <mxPoint x="313" y="260" as="targetPoint" />
          </mxGeometry>
        </mxCell>
        <mxCell id="wV7OhAvMUVkI98Nxj6Et-21" value="" style="endArrow=none;html=1;rounded=0;entryX=0;entryY=0.5;entryDx=0;entryDy=0;" edge="1" parent="1" source="wV7OhAvMUVkI98Nxj6Et-1" target="wV7OhAvMUVkI98Nxj6Et-5">
          <mxGeometry width="50" height="50" relative="1" as="geometry">
            <mxPoint x="63" y="430" as="sourcePoint" />
            <mxPoint x="113" y="380" as="targetPoint" />
          </mxGeometry>
        </mxCell>
        <mxCell id="wV7OhAvMUVkI98Nxj6Et-22" value="&amp;lt;&amp;lt;extend&amp;gt;&amp;gt;" style="html=1;verticalAlign=bottom;labelBackgroundColor=none;endArrow=open;endFill=0;dashed=1;rounded=0;entryX=0.732;entryY=0.06;entryDx=0;entryDy=0;exitX=0;exitY=0.5;exitDx=0;exitDy=0;entryPerimeter=0;" edge="1" parent="1" source="wV7OhAvMUVkI98Nxj6Et-23" target="wV7OhAvMUVkI98Nxj6Et-5">
          <mxGeometry width="160" relative="1" as="geometry">
            <mxPoint x="393" y="200" as="sourcePoint" />
            <mxPoint x="553" y="200" as="targetPoint" />
          </mxGeometry>
        </mxCell>
        <mxCell id="wV7OhAvMUVkI98Nxj6Et-23" value="Хибний пароль" style="ellipse;whiteSpace=wrap;html=1;" vertex="1" parent="1">
          <mxGeometry x="453" y="220" width="77" height="50" as="geometry" />
        </mxCell>
        <mxCell id="wV7OhAvMUVkI98Nxj6Et-24" value="Вірний пароль" style="ellipse;whiteSpace=wrap;html=1;" vertex="1" parent="1">
          <mxGeometry x="470" y="280" width="80" height="50" as="geometry" />
        </mxCell>
        <mxCell id="wV7OhAvMUVkI98Nxj6Et-25" value="&amp;lt;&amp;lt;extend&amp;gt;&amp;gt;" style="html=1;verticalAlign=bottom;labelBackgroundColor=none;endArrow=open;endFill=0;dashed=1;rounded=0;entryX=0.902;entryY=0.202;entryDx=0;entryDy=0;exitX=0;exitY=0.5;exitDx=0;exitDy=0;entryPerimeter=0;" edge="1" parent="1" source="wV7OhAvMUVkI98Nxj6Et-24" target="wV7OhAvMUVkI98Nxj6Et-5">
          <mxGeometry width="160" relative="1" as="geometry">
            <mxPoint x="520" y="250" as="sourcePoint" />
            <mxPoint x="680" y="250" as="targetPoint" />
          </mxGeometry>
        </mxCell>
        <mxCell id="wV7OhAvMUVkI98Nxj6Et-26" value="&amp;lt;&amp;lt;extend&amp;gt;&amp;gt;" style="html=1;verticalAlign=bottom;labelBackgroundColor=none;endArrow=open;endFill=0;dashed=1;rounded=0;exitX=0.5;exitY=1;exitDx=0;exitDy=0;entryX=0;entryY=0;entryDx=0;entryDy=0;" edge="1" parent="1" source="wV7OhAvMUVkI98Nxj6Et-27" target="wV7OhAvMUVkI98Nxj6Et-4">
          <mxGeometry width="160" relative="1" as="geometry">
            <mxPoint x="140" y="110" as="sourcePoint" />
            <mxPoint x="300" y="110" as="targetPoint" />
          </mxGeometry>
        </mxCell>
        <mxCell id="wV7OhAvMUVkI98Nxj6Et-27" value="Ім&#39;я зайняте" style="ellipse;whiteSpace=wrap;html=1;" vertex="1" parent="1">
          <mxGeometry x="270" y="120" width="80" height="50" as="geometry" />
        </mxCell>
        <mxCell id="wV7OhAvMUVkI98Nxj6Et-28" value="Паролі не співпадають" style="ellipse;whiteSpace=wrap;html=1;" vertex="1" parent="1">
          <mxGeometry x="373" y="120" width="80" height="50" as="geometry" />
        </mxCell>
        <mxCell id="wV7OhAvMUVkI98Nxj6Et-29" value="&amp;lt;&amp;lt;extend&amp;gt;&amp;gt;" style="html=1;verticalAlign=bottom;labelBackgroundColor=none;endArrow=open;endFill=0;dashed=1;rounded=0;exitX=0;exitY=1;exitDx=0;exitDy=0;entryX=0.5;entryY=0;entryDx=0;entryDy=0;" edge="1" parent="1" source="wV7OhAvMUVkI98Nxj6Et-28" target="wV7OhAvMUVkI98Nxj6Et-4">
          <mxGeometry width="160" relative="1" as="geometry">
            <mxPoint x="430" y="120" as="sourcePoint" />
            <mxPoint x="590" y="120" as="targetPoint" />
          </mxGeometry>
        </mxCell>
        <mxCell id="wV7OhAvMUVkI98Nxj6Et-31" value="" style="endArrow=none;html=1;rounded=0;exitX=1;exitY=1;exitDx=0;exitDy=0;entryX=0.5;entryY=0;entryDx=0;entryDy=0;" edge="1" parent="1" source="wV7OhAvMUVkI98Nxj6Et-5" target="wV7OhAvMUVkI98Nxj6Et-6">
          <mxGeometry width="50" height="50" relative="1" as="geometry">
            <mxPoint x="390" y="450" as="sourcePoint" />
            <mxPoint x="440" y="400" as="targetPoint" />
          </mxGeometry>
        </mxCell>
        <mxCell id="wV7OhAvMUVkI98Nxj6Et-32" value="" style="endArrow=none;html=1;rounded=0;exitX=0.5;exitY=1;exitDx=0;exitDy=0;entryX=0.5;entryY=0;entryDx=0;entryDy=0;" edge="1" parent="1" source="wV7OhAvMUVkI98Nxj6Et-6" target="wV7OhAvMUVkI98Nxj6Et-7">
          <mxGeometry width="50" height="50" relative="1" as="geometry">
            <mxPoint x="463" y="410.0000000000001" as="sourcePoint" />
            <mxPoint x="470" y="440" as="targetPoint" />
          </mxGeometry>
        </mxCell>
        <mxCell id="wV7OhAvMUVkI98Nxj6Et-34" value="" style="endArrow=none;html=1;rounded=0;exitX=1;exitY=1;exitDx=0;exitDy=0;entryX=0;entryY=0.5;entryDx=0;entryDy=0;" edge="1" parent="1" source="wV7OhAvMUVkI98Nxj6Et-8" target="wV7OhAvMUVkI98Nxj6Et-10">
          <mxGeometry width="50" height="50" relative="1" as="geometry">
            <mxPoint x="720" y="520" as="sourcePoint" />
            <mxPoint x="672.9999999999955" y="550.0000000000001" as="targetPoint" />
          </mxGeometry>
        </mxCell>
        <mxCell id="wV7OhAvMUVkI98Nxj6Et-35" value="" style="endArrow=none;html=1;rounded=0;exitX=0.5;exitY=1;exitDx=0;exitDy=0;entryX=0;entryY=0.5;entryDx=0;entryDy=0;" edge="1" parent="1" source="wV7OhAvMUVkI98Nxj6Et-7" target="wV7OhAvMUVkI98Nxj6Et-8">
          <mxGeometry width="50" height="50" relative="1" as="geometry">
            <mxPoint x="640" y="480" as="sourcePoint" />
            <mxPoint x="690" y="430" as="targetPoint" />
          </mxGeometry>
        </mxCell>
        <mxCell id="wV7OhAvMUVkI98Nxj6Et-37" value="" style="endArrow=none;html=1;rounded=0;exitX=1;exitY=0;exitDx=0;exitDy=0;entryX=0;entryY=0.5;entryDx=0;entryDy=0;" edge="1" parent="1" source="wV7OhAvMUVkI98Nxj6Et-8" target="wV7OhAvMUVkI98Nxj6Et-9">
          <mxGeometry width="50" height="50" relative="1" as="geometry">
            <mxPoint x="790" y="390" as="sourcePoint" />
            <mxPoint x="840" y="340" as="targetPoint" />
          </mxGeometry>
        </mxCell>
        <mxCell id="wV7OhAvMUVkI98Nxj6Et-42" value="User profile" style="ellipse;whiteSpace=wrap;html=1;" vertex="1" parent="1">
          <mxGeometry x="547" y="330" width="100" height="40" as="geometry" />
        </mxCell>
        <mxCell id="wV7OhAvMUVkI98Nxj6Et-43" value="" style="endArrow=none;html=1;rounded=0;entryX=0;entryY=0.5;entryDx=0;entryDy=0;" edge="1" parent="1" source="wV7OhAvMUVkI98Nxj6Et-5" target="wV7OhAvMUVkI98Nxj6Et-42">
          <mxGeometry width="50" height="50" relative="1" as="geometry">
            <mxPoint x="410" y="390" as="sourcePoint" />
            <mxPoint x="460" y="340" as="targetPoint" />
          </mxGeometry>
        </mxCell>
        <mxCell id="wV7OhAvMUVkI98Nxj6Et-53" value="Admin" style="shape=umlActor;verticalLabelPosition=bottom;verticalAlign=top;html=1;strokeColor=light-dark(#000000,#FF0B0B);" vertex="1" parent="1">
          <mxGeometry x="103" y="400" width="30" height="60" as="geometry" />
        </mxCell>
        <mxCell id="wV7OhAvMUVkI98Nxj6Et-57" value="" style="endArrow=none;html=1;rounded=0;entryX=0;entryY=1;entryDx=0;entryDy=0;fillColor=#FF0B0B;strokeColor=light-dark(#FF0B0B,#FF0B0B);" edge="1" parent="1" source="wV7OhAvMUVkI98Nxj6Et-53" target="wV7OhAvMUVkI98Nxj6Et-5">
          <mxGeometry width="50" height="50" relative="1" as="geometry">
            <mxPoint x="140" y="440" as="sourcePoint" />
            <mxPoint x="190" y="390" as="targetPoint" />
          </mxGeometry>
        </mxCell>
        <mxCell id="wV7OhAvMUVkI98Nxj6Et-65" value="Управління фільмами" style="ellipse;whiteSpace=wrap;html=1;" vertex="1" parent="1">
          <mxGeometry x="203" y="470" width="100" height="40" as="geometry" />
        </mxCell>
        <mxCell id="wV7OhAvMUVkI98Nxj6Et-66" value="Управління сеансами" style="ellipse;whiteSpace=wrap;html=1;" vertex="1" parent="1">
          <mxGeometry x="330" y="460" width="100" height="40" as="geometry" />
        </mxCell>
        <mxCell id="wV7OhAvMUVkI98Nxj6Et-67" value="" style="endArrow=none;html=1;rounded=0;exitX=0.5;exitY=0;exitDx=0;exitDy=0;entryX=0.34;entryY=1.026;entryDx=0;entryDy=0;entryPerimeter=0;strokeColor=light-dark(#FF0B0B,#FF0B0B);" edge="1" parent="1" source="wV7OhAvMUVkI98Nxj6Et-65" target="wV7OhAvMUVkI98Nxj6Et-5">
          <mxGeometry width="50" height="50" relative="1" as="geometry">
            <mxPoint x="270" y="450" as="sourcePoint" />
            <mxPoint x="320" y="400" as="targetPoint" />
          </mxGeometry>
        </mxCell>
        <mxCell id="wV7OhAvMUVkI98Nxj6Et-69" value="" style="endArrow=none;html=1;rounded=0;entryX=0.59;entryY=0.991;entryDx=0;entryDy=0;entryPerimeter=0;exitX=0.5;exitY=0;exitDx=0;exitDy=0;strokeColor=light-dark(#FF0B0B,#FF0B0B);" edge="1" parent="1" source="wV7OhAvMUVkI98Nxj6Et-66" target="wV7OhAvMUVkI98Nxj6Et-5">
          <mxGeometry width="50" height="50" relative="1" as="geometry">
            <mxPoint x="400" y="500" as="sourcePoint" />
            <mxPoint x="450" y="450" as="targetPoint" />
          </mxGeometry>
        </mxCell>
        <mxCell id="wV7OhAvMUVkI98Nxj6Et-70" value="Add" style="ellipse;whiteSpace=wrap;html=1;" vertex="1" parent="1">
          <mxGeometry x="310" y="570" width="80" height="50" as="geometry" />
        </mxCell>
        <mxCell id="wV7OhAvMUVkI98Nxj6Et-71" value="Delete" style="ellipse;whiteSpace=wrap;html=1;" vertex="1" parent="1">
          <mxGeometry x="217" y="570" width="80" height="50" as="geometry" />
        </mxCell>
        <mxCell id="wV7OhAvMUVkI98Nxj6Et-72" value="Manage description" style="ellipse;whiteSpace=wrap;html=1;" vertex="1" parent="1">
          <mxGeometry x="127" y="570" width="80" height="50" as="geometry" />
        </mxCell>
        <mxCell id="wV7OhAvMUVkI98Nxj6Et-76" value="&amp;lt;&amp;lt;include&amp;gt;&amp;gt;" style="html=1;verticalAlign=bottom;labelBackgroundColor=none;endArrow=open;endFill=0;dashed=1;rounded=0;exitX=0.5;exitY=0;exitDx=0;exitDy=0;entryX=0;entryY=1;entryDx=0;entryDy=0;strokeColor=light-dark(#FF0B0B,#FF0B0B);" edge="1" parent="1" source="wV7OhAvMUVkI98Nxj6Et-72" target="wV7OhAvMUVkI98Nxj6Et-65">
          <mxGeometry width="160" relative="1" as="geometry">
            <mxPoint x="150" y="540" as="sourcePoint" />
            <mxPoint x="310" y="540" as="targetPoint" />
          </mxGeometry>
        </mxCell>
        <mxCell id="wV7OhAvMUVkI98Nxj6Et-77" value="&amp;lt;&amp;lt;include&amp;gt;&amp;gt;" style="html=1;verticalAlign=bottom;labelBackgroundColor=none;endArrow=open;endFill=0;dashed=1;rounded=0;exitX=0.5;exitY=0;exitDx=0;exitDy=0;entryX=0.5;entryY=1;entryDx=0;entryDy=0;strokeColor=light-dark(#FF0B0B,#FF0B0B);" edge="1" parent="1" source="wV7OhAvMUVkI98Nxj6Et-71" target="wV7OhAvMUVkI98Nxj6Et-65">
          <mxGeometry width="160" relative="1" as="geometry">
            <mxPoint x="177" y="580" as="sourcePoint" />
            <mxPoint x="228" y="514" as="targetPoint" />
          </mxGeometry>
        </mxCell>
        <mxCell id="wV7OhAvMUVkI98Nxj6Et-78" value="&amp;lt;&amp;lt;include&amp;gt;&amp;gt;" style="html=1;verticalAlign=bottom;labelBackgroundColor=none;endArrow=open;endFill=0;dashed=1;rounded=0;exitX=0.5;exitY=0;exitDx=0;exitDy=0;entryX=1;entryY=1;entryDx=0;entryDy=0;strokeColor=light-dark(#FF0B0B,#FF0B0B);" edge="1" parent="1" source="wV7OhAvMUVkI98Nxj6Et-70" target="wV7OhAvMUVkI98Nxj6Et-65">
          <mxGeometry width="160" relative="1" as="geometry">
            <mxPoint x="187" y="590" as="sourcePoint" />
            <mxPoint x="238" y="524" as="targetPoint" />
          </mxGeometry>
        </mxCell>
      </root>
    </mxGraphModel>
  </diagram>
</mxfile>
